HIERARCHY
ROOT base
{
	OFFSET 0.0 0.0 0.0
	CHANNELS 6 Xposition Yposition Zposition Zrotation Yrotation Xrotation
	JOINT root
	{
		OFFSET 0 0 0
		CHANNELS 6 Xposition Yposition Zposition Zrotation Yrotation Xrotation
		JOINT chest
		{
			OFFSET 0 4.72302 0
			CHANNELS 3 Zrotation Yrotation Xrotation
			JOINT neck
			{
				OFFSET 0 4.47788 0
				CHANNELS 3 Zrotation Yrotation Xrotation
				End Site
				{
					OFFSET 0.0 0.0 0.0
				}
			}
			JOINT right_shoulder
			{
				OFFSET -0.481 4.87 3.6622
				CHANNELS 3 Zrotation Yrotation Xrotation
				JOINT right_elbow
				{
					OFFSET 0 -5.49576 0
					CHANNELS 3 Zrotation Yrotation Xrotation
					JOINT right_wrist
					{
						OFFSET 0 -5.17894 0
						CHANNELS 3 Zrotation Yrotation Xrotation
						End Site
						{
							OFFSET 0.0 0.0 0.0
						}
					}
				}
			}
			JOINT left_shoulder
			{
				OFFSET -0.481 4.87 -3.6622
				CHANNELS 3 Zrotation Yrotation Xrotation
				JOINT left_elbow
				{
					OFFSET 0 -5.49576 0
					CHANNELS 3 Zrotation Yrotation Xrotation
					JOINT left_wrist
					{
						OFFSET 0 -5.17894 0
						CHANNELS 3 Zrotation Yrotation Xrotation
						End Site
						{
							OFFSET 0.0 0.0 0.0
						}
					}
				}
			}
		}
		JOINT right_hip
		{
			OFFSET 0 0 1.69774
			CHANNELS 3 Zrotation Yrotation Xrotation
			JOINT right_knee
			{
				OFFSET 0 -8.43092 0
				CHANNELS 3 Zrotation Yrotation Xrotation
				JOINT right_ankle
				{
					OFFSET 0 -8.1974 0
					CHANNELS 3 Zrotation Yrotation Xrotation
					End Site
					{
						OFFSET 0.0 0.0 0.0
					}
				}
			}
		}
		JOINT left_hip
		{
			OFFSET 0 0 -1.69774
			CHANNELS 3 Zrotation Yrotation Xrotation
			JOINT left_knee
			{
				OFFSET 0 -8.43092 0
				CHANNELS 3 Zrotation Yrotation Xrotation
				JOINT left_ankle
				{
					OFFSET 0 -8.1974 0
					CHANNELS 3 Zrotation Yrotation Xrotation
					End Site
					{
						OFFSET 0.0 0.0 0.0
					}
				}
			}
		}
	}
	JOINT red_arrow
	{
		OFFSET 0 0 0
		CHANNELS 3 Zrotation Yrotation Xrotation
		End Site
		{
			OFFSET 0.0 0.0 0.0
		}
	}
	JOINT blue_arrow
	{
		OFFSET 0 0 0
		CHANNELS 3 Zrotation Yrotation Xrotation
		End Site
		{
			OFFSET 0.0 0.0 0.0
		}
	}
}
MOTION
Frames: 15
Frame Time: 0.0333333333333333
-28.2614451408386 0 6.31129210740328 0 -61.2036956071409 0 0 13.9817697048187 0 -87.4277358668057 23.6711566629165 -58.5417992439006 6.82398477546039 -2.44639759881762 -2.37777462456 -4.53719912817234 0.00220206587748401 1.88041934321859 30.9795732077562 16.5734638939584 -20.0098890336605 22.0752704352242 0 0 0 0 0 35.3052043812075 -53.426816764751 26.6385812384366 12.0864722363701 0 0 0 0 0 96.7310073987491 14.0516440023675 -14.1043016357661 -77.3987952594249 0 0 45.9289981582123 -7.24140188447622 9.34531385173564 118.645087416999 4.10759602946964 -9.32450132853523 -66.0264346687053 0 0 15.7349834187708 -3.04549054755337 -0.743541845512268 0 0 0 0 0 0
-28.2548907399178 0 6.62911619991064 0 -57.2295564895763 0 0 14.2483208656311 0 -81.1784682266642 30.6830946047913 -55.0007501518148 1.19101041822642 -1.92569189043206 -0.918803296678539 -3.19723217368287 -0.255309612640539 1.85596685220165 34.3435726295205 16.9800779301718 -13.8950594843603 23.6324254999401 0 0 0 0 0 47.0645744309027 -48.4316080887811 16.4868017337989 5.13654344690466 0 0 0 0 0 87.5865962970871 8.11117175366909 -15.4625051655314 -74.7735437500388 0 0 44.9074250349145 -4.67858319228127 8.02103098809394 107.997473282781 4.89214661865636 -8.07135517700232 -62.6666714461652 0 0 14.0735732481012 -7.05002887000672 -0.413121596214768 0 0 0 0 0 0
-28.1212466001511 0 6.81584380939603 0 -53.6468445145193 0 0 14.7525546550751 0 -73.221739584445 35.6426309759831 -49.3639083077914 -3.83229519358834 -2.2231969899161 0.164658656986721 -5.56293955780021 -1.61349473188013 1.44386489970798 34.8268329448046 16.4519485036495 -10.1826227273293 28.5983657624167 0 0 0 0 0 49.9154915514738 -43.2656574904369 11.3184141951299 3.99916796659626 0 0 0 0 0 77.6025409965048 3.049402471152 -15.7360474281695 -68.619290590858 0 0 42.1936034394807 -2.24982795427358 7.19023455539444 96.4777415457556 4.87520933714102 -6.56724059532652 -56.8263064604815 0 0 12.0306111079625 -9.61923082318897 -0.208009509913548 0 0 0 0 0 0
-27.8590518951416 0 6.94592239782214 0 -50.3610786915658 0 0 15.3618587255478 0 -64.7336006855963 39.2650543566193 -42.7772871453949 -6.72611034155326 -2.45641750127673 0.859216626268623 -9.74635366300385 -3.50654698712425 1.58439024714438 31.2805974748407 14.3967184768147 -8.24418039405038 34.391641716415 0 0 0 0 0 46.8228850021119 -38.4451908957505 8.75947224371002 6.34550571301713 0 0 0 0 0 66.7584344299062 -1.16800614862813 -15.4521476742625 -60.3653758091128 0 0 38.6231228248012 -1.13070821281885 6.45941984552033 84.2722252405618 4.47503347845511 -5.64905056361788 -49.1336180775525 0 0 9.63035932237311 -11.2720714153696 -0.28359984452138 0 0 0 0 0 0
-27.5323813557625 0 7.04321688488126 0 -47.350780238239 0 0 15.9672104716301 0 -55.3558699131777 41.4109450427316 -35.1769468135874 -8.25735031564197 -2.5235714197826 1.23449578719418 -13.867564208069 -5.58766172543113 1.98296084316173 26.9349091564373 12.2497578741797 -7.15679438693222 38.6028904718347 0 0 0 0 0 42.0571624944152 -34.6026624262094 7.91901130080518 8.88122667587588 0 0 0 0 0 55.822551968172 -4.55885748249057 -14.3039507255099 -51.2192607368455 0 0 34.1091134358684 -1.9070042165381 5.62879978598791 71.7520294810142 3.71815278087573 -4.93249597727623 -40.3958936761385 0 0 6.98007216120404 -11.2971589604681 -0.582514330173723 0 0 0 0 0 0
-27.1562063694 0 7.11989582553506 0 -44.6270809147666 0 0 16.4946880221367 0 -45.6899523151618 41.5442776682887 -27.1617349193448 -7.8306855206473 -2.28573146236798 1.26906412519863 -17.3464616459473 -7.27999458517008 2.53632861797412 22.163104246386 9.92322900691676 -6.34410246300208 40.8126103475902 0 0 0 0 0 35.8484328240802 -30.069468061172 7.97973612280429 11.3304872622392 0 0 0 0 0 45.1029227222168 -6.37750478376153 -12.2724959554341 -41.6885582029822 0 0 29.3296891040815 -3.70062147492686 4.76494535287088 59.716462410934 2.78114378101578 -4.06977897453474 -31.5420492286453 0 0 4.34324062246236 -9.67193295339243 -1.05080236936234 0 0 0 0 0 0
-26.7597965240479 0 7.21700469106436 0 -42.1859419539 0 0 16.9206838011742 0 -36.8332158239524 40.0284739329831 -19.9936719597333 -6.33638115187182 -1.79328210087854 1.07150644488563 -19.6298256651238 -8.75339850317918 3.28493445238118 17.2189527829428 7.47116477099676 -5.40522135836403 41.3675256516133 0 0 0 0 0 29.7195970593631 -25.3752092949972 8.03515730796148 12.5975889523405 0 0 0 0 0 34.3294504059183 -6.47970450222022 -9.85604254742837 -31.326140118792 0 0 24.6862381299024 -4.85155130278853 3.98529240540285 48.4152715358347 1.98043154273364 -3.03621110633914 -22.8460794811749 0 0 1.60719214024539 -6.76700276607 -1.51022466660179 0 0 0 0 0 0
-26.3920446634293 0 7.34293710142374 0 -40.0169587133255 0 0 17.2256273031235 0 -29.3517289125411 37.355902555234 -14.2066711432745 -4.6402344071349 -1.27205425855784 0.812237573643624 -21.0399006202551 -9.91109727017161 3.96492294939629 12.6509362271531 5.26569951566953 -4.23875165466483 40.6873002819826 0 0 0 0 0 24.0407255931138 -20.6694873496833 7.76491542615535 12.9528586806977 0 0 0 0 0 24.4562290134677 -5.5875981801911 -7.69457579349802 -21.1977123627353 0 0 19.8314185154976 -5.16429548611107 3.3212191963623 38.2668127976304 1.52283664077526 -1.93174206757915 -14.8550979541712 0 0 -1.13174176154785 -2.9575180189804 -1.96496651162167 0 0 0 0 0 0
-26.0701187968254 0 7.489893271029 0 -38.1045675238687 0 0 17.400464618206 0 -23.0011635709619 34.0999262451072 -9.56598094391683 -3.19877820070829 -0.847033076602954 0.569876697270752 -22.0300921854486 -10.6925066790443 4.49326026486314 9.25889613875613 3.76607036239078 -3.31066125017082 38.9606079692358 0 0 0 0 0 19.0468536741261 -16.4474359205495 7.12764921017606 12.9823121639461 0 0 0 0 0 15.7513553525844 -4.15693448270178 -6.06315989976935 -12.3706490869776 0 0 15.3619397482227 -5.69315289083578 2.68830418715414 29.1924377339661 1.09608991699448 -0.777095385769973 -7.8471462808197 0 0 -3.3877050267545 0.235349197193877 -2.65819308038557 0 0 0 0 0 0
-25.7856746196747 0 7.66054800450802 0 -36.4348379784866 0 0 17.4615422725677 0 -17.5675524114848 30.514240300192 -5.88723694939029 -1.84969963229508 -0.464054506749352 0.34305073051702 -22.5554398963579 -11.1750085503108 4.78246608309804 6.55208067476259 2.60283309369953 -2.38356669924817 36.5879812515864 0 0 0 0 0 14.8305483652665 -12.8507142180958 6.22911068038311 12.9534537609292 0 0 0 0 0 7.85519820061449 -2.45760983417272 -4.99052735579628 -5.37121167131337 0 0 12.0192960168618 -5.92190720366602 2.19037856645726 20.9509452417447 0.769815327132817 0.392230725423999 -1.82047742679677 0 0 -4.71636591442399 2.93358467613732 -3.47271991842091 0 0 0 0 0 0
-25.6252457469702 0 7.84454035758972 0 -34.9363620348821 0 0 17.4540616154671 0 -13.8881642079086 27.7644675377512 -3.46215287251958 -0.43414737470802 -1.17055447891686 0.241168583245417 -22.6995066965081 -11.5368622093202 4.75466843521551 4.14054194865174 1.71132046138204 -1.3380141194826 34.615494336273 0 0 0 0 0 11.4404077122893 -9.8665167475333 5.16342767543633 13.2736931565808 0 0 0 0 0 1.86408353095343 -1.83572751896804 -4.45409520854627 0.0981366916032721 0 0 9.84332331786588 -5.30534373882396 1.7198573611805 16.1990861884823 -0.322219391914612 1.17618685827268 0.00178446362689186 0 0 -4.31924005074217 5.41640022174168 -4.24323525373334 0 0 0 0 0 0
-25.559152379632 0 8.03050517290831 0 -33.6471975298835 0 0 17.4515972018242 0 -10.8363216574495 24.1074780373605 -1.41923599904425 0.767731972966025 -0.99799324459956 0.162549294469684 -23.1336571159398 -11.5785694919255 4.49386612801505 3.02139721748256 1.28318265549616 -1.19295614309657 32.3327597382901 0 0 0 0 0 9.14950444289981 -8.16802977674557 4.45626080858095 13.1652246299191 0 0 0 0 0 -0.624715202554222 -0.551843729177995 -4.2444217237952 0.0112669623274713 0 0 10.0349467015092 -4.28381984703527 1.30020227786324 13.0169271555458 -0.527967083614369 1.96734814451715 0.000853018360898275 0 0 -3.82376375466472 8.13420689219601 -5.04651824556883 0 0 0 0 0 0
-25.5541928857565 0 8.24538961350918 0 -32.5107200099938 0 0 17.4385722875595 0 -8.4479548991305 21.3800325832281 0.0056676527716154 1.62013656513931 -0.876888606232198 0.305261572047938 -22.9521954560373 -11.5769191942073 4.08701583209808 1.79347757874108 0.883166416719712 -0.80972843145302 30.5162572681469 0 0 0 0 0 7.41504213314278 -6.64957888100017 3.80627793415253 13.5232861980996 0 0 0 0 0 -2.69620306175681 0.685538759638714 -3.88567748482753 0.00137837440462106 0 0 10.4708234270268 -3.80340362737609 0.595096782711903 10.5192784083655 -0.447667507739203 2.71351124793326 0.00134773693742852 0 0 -3.71456898141225 9.66207838966804 -5.90541149477567 0 0 0 0 0 0
-25.6197042748332 0 8.46045336723328 0 -31.4820751117724 0 0 17.4486950397491 0 -6.58323060122027 19.4250639546208 0.861166597180065 1.56037757658137 -0.944410238220715 0.692541224811085 -22.5849942286983 -11.7515313053737 3.86366124625313 1.77797982003325 0.67886472306323 -1.49517467831709 29.6535258287988 0 0 0 0 0 6.44689452579266 -6.04741445261461 3.53920537142314 13.8566950522446 0 0 0 0 0 -4.19717610778311 1.18584960845623 -3.24926762203529 0.0112321835578365 0 0 10.3206521189066 -3.23522130121762 -0.0801602992881872 8.76084562952523 -0.657723674373785 3.57745715402831 7.22049202168158E-05 0 0 -4.6180473830529 10.6336549050462 -6.91560948378054 0 0 0 0 0 0
-25.6935373082757 0 8.67538660466671 0 -30.5382665736818 0 0 17.4582928180695 0 -4.85522363960113 17.872116333731 1.63118034519618 1.22907784386996 -1.12430679891383 0.93128928681 -22.4077433141305 -11.8319194835997 3.56645039483532 1.67090921670424 0.473125905178438 -1.89544335303406 29.2238932696267 0 0 0 0 0 5.58596906026833 -5.50750976796877 3.45160866950069 14.3225122460922 0 0 0 0 0 -5.62518538999642 1.43681898062678 -2.6492478304329 0.000368992512423197 0 0 10.1891762368169 -2.76992292920553 -0.781241725695651 7.13337192641694 -1.16934283461632 4.33964204285784 -1.20849629934315E-05 0 0 -5.75998771382029 11.4599690425669 -8.00890167890345 0 0 0 0 0 0
